<svg xmlns="http://www.w3.org/2000/svg" viewBox="0 0 594 104" role="img" aria-label="PAY AX">
  <defs>
    <linearGradient id="ax" x1="0" y1="0" x2="1" y2="1">
      <stop offset="0" stop-color="#00E5FF"/>
      <stop offset="1" stop-color="#1E88E5"/>
    </linearGradient>
    <linearGradient id="ax2" x1="1" y1="0" x2="0" y2="1">
      <stop offset="0" stop-color="#00D4FF"/>
      <stop offset="1" stop-color="#1565C0"/>
    </linearGradient>
  </defs>
  <g transform="scale(1.16 1)">
  <g fill="#FFFFFF">
    <!-- P -->
    <path fill-rule="evenodd" d="M2 2H60A31 31 0 0 1 60 64H28V102H2Z M28 24H57A9 9 0 0 1 57 42H28Z"/>
    <!-- A (sem travessão, com contra-forma triangular) -->
    <path d="M96 102L138 2H158L200 102H172L148 44L124 102Z M136 102L148 74L160 102Z"/>
    <!-- Y -->
    <path d="M196 2H226L246 40L266 2H296L260 66V102H232V66Z"/>
  </g>
  <!-- AX em degradê ciano, com o X entrelaçado na perna do A -->
  <path fill="url(#ax)" d="M302 102L344 2H364L406 102H378L354 44L330 102Z M342 102L354 74L366 102Z"/>
  <path fill="url(#ax2)" d="M470 2H506L436 102H400Z"/>
  <path fill="url(#ax)" d="M392 2H428L506 102H470Z"/>
  </g>
</svg>
